<svg width="20" height="21" viewBox="0 0 20 21" fill="none" xmlns="http://www.w3.org/2000/svg">
<path d="M1 9.00003C0.99993 8.7091 1.06333 8.42165 1.18579 8.15775C1.30824 7.89384 1.4868 7.65983 1.709 7.47203L8.709 1.47303C9.06999 1.16794 9.52736 1.00055 10 1.00055C10.4726 1.00055 10.93 1.16794 11.291 1.47303L18.291 7.47203C18.5132 7.65983 18.6918 7.89384 18.8142 8.15775C18.9367 8.42165 19.0001 8.7091 19 9.00003V18C19 18.5305 18.7893 19.0392 18.4142 19.4142C18.0391 19.7893 17.5304 20 17 20H3C2.46957 20 1.96086 19.7893 1.58579 19.4142C1.21071 19.0392 1 18.5305 1 18V9.00003Z" stroke="#232323" stroke-width="1.5" stroke-linecap="round" stroke-linejoin="round"/>
</svg>
